<svg width="1207" height="467" viewBox="0 0 1207 467" fill="none" xmlns="http://www.w3.org/2000/svg">
<path d="M50.3017 0C8.54713 0.405086 -28.2166 57.7198 30.6943 71.3248C133.317 95.0371 213.367 156.393 275.727 252.23C283.831 268.335 289.958 284.341 286.894 300.445C282.546 316.155 281.656 332.062 283.732 345.795C287.784 370.496 300.038 397.37 321.089 420.292C342.04 443.214 367.439 457.639 391.651 463.764C415.864 469.791 440.077 468.013 456.284 453.192C472.591 438.273 474.666 415.45 469.033 392.232C463.4 369.014 449.268 344.017 428.514 321.391C407.76 298.667 384.14 282.365 361.509 274.658C353.405 271.892 345.202 270.113 337.395 269.718C323.955 264.284 314.072 252.823 305.177 239.584C250.229 132.779 168.598 62.9662 73.4273 6.27389C65.8966 2.52932 57.4765 0 50.3017 0ZM302.509 311.709C326.821 372.768 374.949 421.181 428.613 447.561C420.311 449.043 409.934 448.648 398.668 445.881C377.914 440.645 354.69 427.8 335.616 407.052C316.543 386.205 305.276 361.208 301.817 339.966C300.829 330.382 300.533 320.107 302.509 311.709Z" fill="#6CA1DD" fill-opacity="0.7"/>
<path d="M376.108 392.275C366.367 392.275 357.639 390.695 349.922 387.533C342.206 384.371 336.008 379.692 331.327 373.495C326.773 367.298 324.37 359.837 324.117 351.111H358.651C359.157 356.043 360.865 359.837 363.774 362.493C366.684 365.022 370.479 366.287 375.159 366.287C379.966 366.287 383.761 365.212 386.544 363.062C389.327 360.785 390.718 357.687 390.718 353.767C390.718 350.478 389.58 347.759 387.303 345.609C385.152 343.46 382.433 341.689 379.144 340.298C375.981 338.907 371.427 337.326 365.482 335.555C356.88 332.9 349.859 330.244 344.42 327.588C338.98 324.932 334.3 321.012 330.378 315.827C326.457 310.642 324.496 303.876 324.496 295.529C324.496 283.135 328.987 273.461 337.968 266.505C346.95 259.423 358.651 255.882 373.072 255.882C387.746 255.882 399.573 259.423 408.555 266.505C417.536 273.461 422.343 283.199 422.976 295.719H387.872C387.619 291.419 386.038 288.067 383.128 285.665C380.219 283.135 376.487 281.871 371.933 281.871C368.012 281.871 364.849 282.946 362.446 285.096C360.042 287.119 358.841 290.091 358.841 294.011C358.841 298.311 360.865 301.663 364.913 304.065C368.961 306.468 375.285 309.061 383.887 311.843C392.489 314.752 399.447 317.534 404.76 320.19C410.199 322.846 414.88 326.703 418.801 331.761C422.723 336.82 424.683 343.333 424.683 351.3C424.683 358.888 422.723 365.781 418.801 371.978C415.006 378.174 409.44 383.107 402.103 386.774C394.766 390.442 386.101 392.275 376.108 392.275Z" fill="#222781"/>
<path d="M477.098 300.082C480.261 295.15 484.625 291.166 490.191 288.131C495.757 285.096 502.272 283.578 509.735 283.578C518.464 283.578 526.37 285.791 533.454 290.217C540.538 294.644 546.104 300.967 550.152 309.187C554.326 317.408 556.413 326.956 556.413 337.832C556.413 348.708 554.326 358.319 550.152 366.666C546.104 374.886 540.538 381.273 533.454 385.826C526.37 390.252 518.464 392.465 509.735 392.465C502.398 392.465 495.883 390.947 490.191 387.912C484.625 384.877 480.261 380.957 477.098 376.151V441.407H444.651V285.096H477.098V300.082ZM523.397 337.832C523.397 329.738 521.12 323.415 516.566 318.862C512.139 314.183 506.636 311.843 500.058 311.843C493.606 311.843 488.104 314.183 483.55 318.862C479.122 323.541 476.909 329.928 476.909 338.022C476.909 346.115 479.122 352.502 483.55 357.181C488.104 361.86 493.606 364.2 500.058 364.2C506.509 364.2 512.012 361.86 516.566 357.181C521.12 352.375 523.397 345.926 523.397 337.832Z" fill="#222781"/>
<path d="M621.632 392.465C611.259 392.465 601.898 390.252 593.549 385.826C585.327 381.399 578.812 375.076 574.005 366.856C569.325 358.635 566.984 349.024 566.984 338.022C566.984 327.145 569.388 317.597 574.195 309.377C579.002 301.03 585.58 294.644 593.929 290.217C602.278 285.791 611.638 283.578 622.011 283.578C632.384 283.578 641.745 285.791 650.094 290.217C658.443 294.644 665.021 301.03 669.828 309.377C674.635 317.597 677.038 327.145 677.038 338.022C677.038 348.898 674.572 358.509 669.638 366.856C664.831 375.076 658.19 381.399 649.715 385.826C641.366 390.252 632.005 392.465 621.632 392.465ZM621.632 364.39C627.83 364.39 633.08 362.113 637.381 357.56C641.808 353.008 644.022 346.495 644.022 338.022C644.022 329.548 641.872 323.035 637.571 318.483C633.396 313.93 628.21 311.653 622.011 311.653C615.686 311.653 610.437 313.93 606.262 318.483C602.088 322.909 600.001 329.422 600.001 338.022C600.001 346.495 602.025 353.008 606.073 357.56C610.247 362.113 615.433 364.39 621.632 364.39Z" fill="#222781"/>
<path d="M742.448 392.465C732.075 392.465 722.714 390.252 714.365 385.826C706.143 381.399 699.628 375.076 694.821 366.856C690.141 358.635 687.801 349.024 687.801 338.022C687.801 327.145 690.204 317.597 695.011 309.377C699.818 301.03 706.396 294.644 714.745 290.217C723.094 285.791 732.455 283.578 742.828 283.578C753.201 283.578 762.562 285.791 770.911 290.217C779.259 294.644 785.837 301.03 790.644 309.377C795.451 317.597 797.855 327.145 797.855 338.022C797.855 348.898 795.388 358.509 790.455 366.856C785.648 375.076 779.007 381.399 770.531 385.826C762.182 390.252 752.821 392.465 742.448 392.465ZM742.448 364.39C748.647 364.39 753.896 362.113 758.197 357.56C762.625 353.008 764.839 346.495 764.839 338.022C764.839 329.548 762.688 323.035 758.387 318.483C754.213 313.93 749.026 311.653 742.828 311.653C736.503 311.653 731.253 313.93 727.079 318.483C722.904 322.909 720.817 329.422 720.817 338.022C720.817 346.495 722.841 353.008 726.889 357.56C731.063 362.113 736.25 364.39 742.448 364.39Z" fill="#222781"/>
<path d="M879.583 283.957C891.98 283.957 901.847 288.004 909.184 296.098C916.647 304.065 920.379 315.068 920.379 329.106V390.947H888.122V333.469C888.122 326.387 886.288 320.885 882.619 316.965C878.951 313.044 874.017 311.084 867.819 311.084C861.62 311.084 856.687 313.044 853.018 316.965C849.35 320.885 847.516 326.387 847.516 333.469V390.947H815.069V285.096H847.516V299.133C850.805 294.454 855.232 290.786 860.798 288.131C866.364 285.348 872.626 283.957 879.583 283.957Z" fill="#222781"/>
<path d="M1029.64 257.779V283.768H975.373V311.843H1015.98V337.073H975.373V390.947H942.926V257.779H1029.64Z" fill="#222781"/>
<path d="M1151.25 285.096V390.947H1118.8V376.53C1115.51 381.21 1111.02 385.004 1105.33 387.912C1099.76 390.695 1093.56 392.086 1086.73 392.086C1078.64 392.086 1071.49 390.315 1065.29 386.774C1059.09 383.107 1054.29 377.858 1050.87 371.029C1047.45 364.2 1045.75 356.169 1045.75 346.937V285.096H1078V342.574C1078 349.656 1079.84 355.158 1083.51 359.078C1087.17 362.998 1092.11 364.959 1098.31 364.959C1104.63 364.959 1109.63 362.998 1113.3 359.078C1116.97 355.158 1118.8 349.656 1118.8 342.574V285.096H1151.25Z" fill="#222781"/>
<path d="M1207 250.57V390.947H1174.55V250.57H1207Z" fill="#222781"/>
</svg>
