<svg width="18" height="18" viewBox="0 0 18 18" fill="none" xmlns="http://www.w3.org/2000/svg">
<path d="M8.98097 18C8.42283 18 7.95349 17.8224 7.57294 17.4672C7.21776 17.0867 7.04017 16.6173 7.04017 16.0592V10.9598H1.9408C1.38266 10.9598 0.913319 10.7696 0.532769 10.389C0.17759 10.0085 0 9.53911 0 8.98097C0 8.42283 0.17759 7.96617 0.532769 7.61099C0.913319 7.23044 1.38266 7.04017 1.9408 7.04017H7.04017V1.9408C7.04017 1.40803 7.23044 0.951373 7.61099 0.570824C8.01691 0.190275 8.47357 0 8.98097 0C9.56448 0 10.0338 0.190275 10.389 0.570824C10.7442 0.926004 10.9218 1.38266 10.9218 1.9408V7.04017H16.0211C16.5539 7.04017 17.0106 7.23044 17.3911 7.61099C17.797 7.99154 18 8.4482 18 8.98097C18 9.53911 17.797 10.0085 17.3911 10.389C17.0106 10.7696 16.5539 10.9598 16.0211 10.9598H10.9218V16.0592C10.9218 16.6173 10.7442 17.0867 10.389 17.4672C10.0338 17.8224 9.56448 18 8.98097 18Z" fill="#222781"/>
</svg>
